<svg width="30" height="30" viewBox="0 0 30 30" fill="none" xmlns="http://www.w3.org/2000/svg">
<path d="M17.3862 14.6425L12.5259 11.989C12.2464 11.8364 11.9161 11.8421 11.6422 12.004C11.3681 12.1662 11.2046 12.4525 11.2046 12.7704V18.032C11.2046 18.3484 11.3671 18.6343 11.6393 18.7965C11.7815 18.8813 11.9391 18.9238 12.097 18.9238C12.2417 18.9238 12.3867 18.8882 12.5202 18.8165L17.3806 16.2086C17.6691 16.0537 17.8492 15.7544 17.8506 15.4273C17.8518 15.1002 17.6738 14.7996 17.3862 14.6425ZM12.4938 17.3701V13.4377L16.1263 15.421L12.4938 17.3701Z" fill="#F4A477"/>
<path d="M24.838 11.2363L24.837 11.2263C24.8184 11.0496 24.6329 9.47812 23.8672 8.67883C22.9822 7.73869 21.9788 7.62448 21.4962 7.56972C21.4563 7.5652 21.4197 7.56101 21.387 7.55666L21.3485 7.55264C18.4401 7.34164 14.0478 7.31283 14.0038 7.31267L13.9999 7.3125L13.9961 7.31267C13.9521 7.31283 9.55973 7.34164 6.62512 7.55264L6.58635 7.55666C6.55513 7.56085 6.52073 7.5647 6.4833 7.56905C6.00628 7.62398 5.01364 7.73836 4.12607 8.71249C3.39679 9.50324 3.18597 11.0411 3.16432 11.2139L3.1618 11.2363C3.15526 11.3098 3 13.06 3 14.817V16.4595C3 18.2165 3.15526 19.9666 3.1618 20.0403L3.16298 20.0514C3.18161 20.2252 3.36691 21.7679 4.1291 22.5675C4.96127 23.4761 6.0135 23.5964 6.57947 23.661C6.66893 23.6712 6.74597 23.6799 6.79851 23.6892L6.84937 23.6962C8.52866 23.8556 13.7938 23.9342 14.017 23.9373L14.0238 23.9375L14.0305 23.9373C14.0744 23.9372 18.4666 23.9084 21.375 23.6974L21.4135 23.6933C21.4502 23.6885 21.4915 23.6841 21.5368 23.6794C22.0112 23.6292 22.9984 23.5249 23.8738 22.564C24.603 21.773 24.814 20.2352 24.8355 20.0626L24.838 20.0401C24.8446 19.9665 25 18.2165 25 16.4595V14.817C24.9998 13.06 24.8446 11.31 24.838 11.2363ZM23.7106 16.4595C23.7106 18.0857 23.5683 19.7605 23.5549 19.9142C23.5001 20.3377 23.2777 21.3107 22.9224 21.696C22.3746 22.2974 21.8118 22.357 21.4009 22.4004C21.3512 22.4056 21.3052 22.4106 21.2636 22.4158C18.4505 22.6187 14.224 22.6499 14.0293 22.6511C13.8109 22.6479 8.62282 22.5687 6.99472 22.4178C6.9113 22.4042 6.82117 22.3938 6.72617 22.3831C6.24428 22.328 5.58465 22.2527 5.07742 21.696L5.06551 21.6833C4.71639 21.3204 4.50037 20.4106 4.44548 19.9192C4.43525 19.803 4.28922 18.1085 4.28922 16.4595V14.817C4.28922 13.1926 4.43122 11.5197 4.44498 11.3627C4.51027 10.8639 4.73686 9.94987 5.07742 9.58044C5.64205 8.96083 6.2374 8.89217 6.63117 8.84679C6.66876 8.84244 6.70384 8.83842 6.73624 8.83423C9.59028 8.63026 13.8472 8.59995 13.9999 8.59878C14.1527 8.59978 18.408 8.63026 21.2367 8.83423C21.2715 8.83859 21.3094 8.84294 21.3502 8.84763C21.7552 8.89368 22.3673 8.96334 22.9291 9.56119L22.9343 9.56671C23.2834 9.9296 23.4995 10.8553 23.5543 11.3566C23.5641 11.4662 23.7106 13.1645 23.7106 14.817V16.4595Z" fill="#F4A477"/>
</svg>
