<svg width="30" height="30" viewBox="0 0 30 30" fill="none" xmlns="http://www.w3.org/2000/svg">
<path d="M19.2276 6.21544V6.21445H19.1276H10.8724C8.13071 6.21445 5.9 8.43982 5.9 11.1759V19.4126C5.9 22.1486 8.13072 24.3739 10.8724 24.3739H19.1277C21.8693 24.3739 24.1 22.1486 24.1 19.4126V11.1759C24.1 8.47316 21.9233 6.26877 19.2276 6.21544ZM22.8448 19.4126C22.8448 21.4571 21.1774 23.1211 19.1276 23.1211H10.8724C8.82261 23.1211 7.15524 21.4571 7.15524 19.4126V11.1759C7.15524 9.13126 8.82261 7.46731 10.8724 7.46731H19.1277C21.1774 7.46731 22.8448 9.13125 22.8448 11.1759V19.4126Z" fill="#F4A477" stroke="#F4A477" stroke-width="0.2"/>
<path d="M15 10.2833C12.2311 10.2833 9.97825 12.5307 9.97825 15.2939C9.97825 18.0572 12.2311 20.3046 15 20.3046C17.7689 20.3046 20.0217 18.0572 20.0217 15.2939C20.0217 12.5307 17.7689 10.2833 15 10.2833ZM15 19.0517C12.9231 19.0517 11.2335 17.3657 11.2335 15.2939C11.2335 13.2223 12.9231 11.5362 15 11.5362C17.077 11.5362 18.7665 13.2223 18.7665 15.2939C18.7665 17.3657 17.077 19.0517 15 19.0517Z" fill="#F4A477" stroke="#F4A477" stroke-width="0.2"/>
<path d="M20.0395 8.53965C19.1825 8.53965 18.4852 9.23523 18.4852 10.0908C18.4852 10.9464 19.1825 11.642 20.0395 11.642C20.8966 11.642 21.594 10.9464 21.594 10.0908C21.594 9.23507 20.8965 8.53965 20.0395 8.53965ZM20.0395 10.3889C19.8745 10.3889 19.7404 10.2548 19.7404 10.0908C19.7404 9.92656 19.8745 9.79255 20.0395 9.79255C20.2047 9.79255 20.3387 9.92658 20.3387 10.0908C20.3387 10.2548 20.2047 10.3889 20.0395 10.3889Z" fill="#F4A477" stroke="#F4A477" stroke-width="0.2"/>
</svg>
