<svg width="72" height="72" viewBox="0 0 72 72" fill="none" xmlns="http://www.w3.org/2000/svg">
<path d="M61.4558 10.5441C54.6563 3.7447 45.6159 0 36 0C26.3839 0 17.3434 3.7447 10.5441 10.5441C3.74456 17.3436 0 26.3841 0 36C0 45.6159 3.74456 54.6563 10.5441 61.4558C17.3436 68.2553 26.3839 72 36 72C45.6159 72 54.6563 68.2553 61.4558 61.4558C68.2553 54.6563 72 45.6159 72 36C72 26.3841 68.2553 17.3437 61.4558 10.5441ZM36 67.7812C18.4757 67.7812 4.21875 53.5243 4.21875 36C4.21875 18.4757 18.4757 4.21875 36 4.21875C53.5243 4.21875 67.7812 18.4757 67.7812 36C67.7812 53.5243 53.5243 67.7812 36 67.7812Z" fill="#F4A477"/>
<path d="M54.9135 24.4489C54.0898 23.6254 52.7542 23.6254 51.9305 24.449L33.3035 43.0761L23.4981 33.2707C22.6745 32.4471 21.3388 32.4471 20.5151 33.2707C19.6913 34.0944 19.6913 35.43 20.5151 36.2538L31.8119 47.5506C32.2238 47.9625 32.7636 48.1684 33.3033 48.1684C33.8431 48.1684 34.3831 47.9624 34.7948 47.5506L54.9135 27.432C55.7373 26.6083 55.7373 25.2727 54.9135 24.4489Z" fill="#F4A477"/>
</svg>
