<svg width="20" height="20" viewBox="0 0 20 20" fill="none" xmlns="http://www.w3.org/2000/svg">
<path d="M16.1307 3H4.53629C3.13769 3 2 4.13769 2 5.53629V13.5075C2 14.906 3.13769 16.0437 4.53629 16.0437H12.3575L15.8742 19.5612C15.9438 19.63 16.0365 19.667 16.1307 19.667C16.1771 19.667 16.2242 19.6576 16.2692 19.6394C16.4047 19.5836 16.4931 19.451 16.4931 19.3047V16.0183C17.7206 15.8415 18.667 14.7828 18.667 13.5074V5.53629C18.667 4.13769 17.5293 3 16.1307 3ZM17.9423 13.5074C17.9423 14.5067 17.1293 15.319 16.1307 15.319C15.9307 15.319 15.7684 15.4814 15.7684 15.6814V18.43L12.764 15.4249C12.6959 15.3575 12.6038 15.319 12.5074 15.319H4.53629C3.53773 15.319 2.72467 14.5067 2.72467 13.5074V5.53629C2.72467 4.53699 3.53773 3.72467 4.53629 3.72467H16.1307C17.1293 3.72467 17.9423 4.53702 17.9423 5.53629V13.5074Z" fill="#E3BE38"/>
<path d="M10.334 11.6958C9.73475 11.6958 9.24707 12.1835 9.24707 12.7828C9.24707 13.3821 9.73475 13.8698 10.334 13.8698C10.9333 13.8698 11.421 13.3821 11.421 12.7828C11.421 12.1835 10.9333 11.6958 10.334 11.6958ZM10.334 13.1451C10.134 13.1451 9.97171 12.9821 9.97171 12.7828C9.97171 12.5835 10.134 12.4204 10.334 12.4204C10.5341 12.4204 10.6964 12.5835 10.6964 12.7828C10.6964 12.9821 10.5341 13.1451 10.334 13.1451Z" fill="#E3BE38"/>
<path d="M11.4918 5.5202C11.2867 5.29992 10.9969 5.17383 10.6961 5.17383H9.9715C9.67078 5.17383 9.38165 5.29992 9.17655 5.5202C8.97148 5.73977 8.86638 6.0376 8.88741 6.34342L9.19394 9.91376C9.23596 10.5065 9.73454 10.971 10.3338 10.971C10.928 10.971 11.4266 10.5065 11.4679 9.91954L11.7802 6.33832C11.802 6.03835 11.6969 5.74052 11.4918 5.5202ZM11.0585 6.28108L10.7454 9.86305C10.7302 10.0783 10.5491 10.2464 10.328 10.2464C10.1121 10.2464 9.93166 10.0783 9.91569 9.85724L9.60988 6.28689C9.60264 6.18472 9.63668 6.0876 9.70624 6.01369C9.77581 5.93977 9.87 5.89847 9.97147 5.89847H10.6961C10.7976 5.89847 10.8918 5.93977 10.9614 6.01369C11.0309 6.0876 11.065 6.18472 11.0585 6.28108Z" fill="#E3BE38"/>
</svg>
