<svg width="30" height="30" viewBox="0 0 30 30" fill="none" xmlns="http://www.w3.org/2000/svg">
<path d="M20.2949 12.2935H18.3325V11.2938C18.3325 11.1184 18.3445 11.0038 18.3598 10.93C18.375 10.857 18.3918 10.832 18.3962 10.8267C18.3986 10.8245 18.4881 10.7418 18.9168 10.7418H18.9168L20.4069 10.7413C20.407 10.7413 20.407 10.7413 20.407 10.7413C20.946 10.7412 21.3857 10.3065 21.3857 9.7701V7.18919C21.3857 6.65361 20.9466 6.21893 20.4084 6.21802L20.4083 6.21802L18.1951 6.21445H18.1949C16.8065 6.21445 15.6181 6.66881 14.7654 7.53589C13.9167 8.39891 13.4722 9.59999 13.4722 11.0016V12.2936H11.8791C11.3399 12.2936 10.9 12.7283 10.9 13.2648V16.0445C10.9 16.5808 11.3399 17.0157 11.8791 17.0157H13.4722V23.4028C13.4722 23.9392 13.9121 24.3739 14.4512 24.3739H17.3533C17.8924 24.3739 18.3325 23.9392 18.3325 23.4028V17.0155H20.302C20.8411 17.0155 21.281 16.5809 21.2811 16.0447C21.2811 16.0447 21.2811 16.0447 21.2811 16.0446L21.2822 13.265V13.2649C21.2822 12.9125 21.0886 12.5873 20.7784 12.4155L20.7783 12.4155C20.6335 12.3353 20.4663 12.2935 20.2949 12.2935ZM17.07 16.4443V23.1211H14.7346V16.4443C14.7346 16.0675 14.4257 15.7627 14.0478 15.7627H12.1624V13.5465H14.0478C14.4257 13.5465 14.7346 13.2415 14.7346 12.8648V11.0016C14.7346 9.90115 15.0691 9.01973 15.6625 8.41383C16.2557 7.80818 17.1179 7.46733 18.194 7.46731C18.194 7.46731 18.1941 7.46731 18.1941 7.46731L20.1233 7.47044V9.48845L18.9165 9.48895C18.9165 9.48895 18.9165 9.48895 18.9165 9.48895C18.5003 9.48896 17.8613 9.53564 17.4508 9.99652C17.1107 10.3781 17.07 10.8803 17.07 11.2938V12.8648C17.07 13.2417 17.3788 13.5465 17.7568 13.5465H20.0196L20.0187 15.7627H17.7569C17.379 15.7627 17.07 16.0675 17.07 16.4443Z" fill="#F4A477" stroke="#F4A477" stroke-width="0.2"/>
</svg>
