<svg width="94" height="66" viewBox="0 0 94 66" fill="none" xmlns="http://www.w3.org/2000/svg">
<path d="M77.3261 40.006C77.3261 42.3113 76.7367 44.0966 75.5581 45.362C74.3967 46.6273 72.8194 47.26 70.8261 47.26C69.5954 47.26 68.4947 46.9826 67.5241 46.428C66.5707 45.856 65.8167 45.0326 65.2621 43.958C64.7074 42.866 64.4301 41.5486 64.4301 40.006C64.4301 37.7006 65.0107 35.924 66.1721 34.676C67.3334 33.428 68.9107 32.804 70.9041 32.804C72.1694 32.804 73.2787 33.09 74.2321 33.662C75.2027 34.2166 75.9567 35.0313 76.4941 36.106C77.0487 37.1633 77.3261 38.4633 77.3261 40.006ZM66.7961 40.006C66.7961 41.6526 67.1167 42.9613 67.7581 43.932C68.4167 44.8853 69.4567 45.362 70.8781 45.362C72.2821 45.362 73.3134 44.8853 73.9721 43.932C74.6307 42.9613 74.9601 41.6526 74.9601 40.006C74.9601 38.3593 74.6307 37.068 73.9721 36.132C73.3134 35.196 72.2734 34.728 70.8521 34.728C69.4307 34.728 68.3994 35.196 67.7581 36.132C67.1167 37.068 66.7961 38.3593 66.7961 40.006Z" fill="#EFF3F6"/>
<path d="M83.7464 39.876L78.9364 33.064H81.5364L85.1244 38.316L88.6864 33.064H91.2604L86.4504 39.876L91.5204 47H88.9204L85.1244 41.436L81.2764 47H78.7024L83.7464 39.876Z" fill="#EFF3F6"/>
<path d="M69.642 19.9701C68.5687 19.9701 67.724 20.3294 67.108 21.0481C66.492 21.7668 66.184 22.7514 66.184 24.0021C66.184 25.2434 66.4687 26.2281 67.038 26.9561C67.6167 27.6748 68.48 28.0341 69.628 28.0341C70.0667 28.0341 70.482 27.9968 70.874 27.9221C71.266 27.8474 71.6487 27.7541 72.022 27.6421V28.7341C71.6487 28.8741 71.2613 28.9768 70.86 29.0421C70.468 29.1074 69.9967 29.1401 69.446 29.1401C68.4287 29.1401 67.5793 28.9301 66.898 28.5101C66.2167 28.0901 65.7033 27.4928 65.358 26.7181C65.022 25.9434 64.854 25.0334 64.854 23.9881C64.854 22.9801 65.036 22.0934 65.4 21.3281C65.7733 20.5534 66.3193 19.9514 67.038 19.5221C67.7567 19.0834 68.6293 18.8641 69.656 18.8641C70.7107 18.8641 71.63 19.0601 72.414 19.4521L71.91 20.5161C71.602 20.3761 71.2567 20.2501 70.874 20.1381C70.5007 20.0261 70.09 19.9701 69.642 19.9701Z" fill="#EFF3F6"/>
<path d="M76.8777 21.3701C77.7924 21.3701 78.469 21.5708 78.9077 21.9721C79.3464 22.3734 79.5657 23.0128 79.5657 23.8901V29.0001H78.6697L78.4317 27.9361H78.3757C78.049 28.3468 77.7037 28.6501 77.3397 28.8461C76.985 29.0421 76.4904 29.1401 75.8557 29.1401C75.1744 29.1401 74.6097 28.9628 74.1617 28.6081C73.7137 28.2441 73.4897 27.6794 73.4897 26.9141C73.4897 26.1674 73.7837 25.5934 74.3717 25.1921C74.9597 24.7814 75.865 24.5574 77.0877 24.5201L78.3617 24.4781V24.0301C78.3617 23.4048 78.2264 22.9708 77.9557 22.7281C77.685 22.4854 77.3024 22.3641 76.8077 22.3641C76.4157 22.3641 76.0424 22.4248 75.6877 22.5461C75.333 22.6581 75.0017 22.7888 74.6937 22.9381L74.3157 22.0141C74.6424 21.8368 75.0297 21.6874 75.4777 21.5661C75.9257 21.4354 76.3924 21.3701 76.8777 21.3701ZM78.3477 25.3321L77.2417 25.3741C76.3084 25.4114 75.6597 25.5608 75.2957 25.8221C74.941 26.0834 74.7637 26.4521 74.7637 26.9281C74.7637 27.3481 74.8897 27.6561 75.1417 27.8521C75.403 28.0481 75.7344 28.1461 76.1357 28.1461C76.7704 28.1461 77.2977 27.9734 77.7177 27.6281C78.1377 27.2734 78.3477 26.7321 78.3477 26.0041V25.3321Z" fill="#EFF3F6"/>
<path d="M85.3834 21.3561C85.5234 21.3561 85.6727 21.3654 85.8314 21.3841C85.9994 21.3934 86.144 21.4121 86.2654 21.4401L86.1114 22.5741C85.99 22.5461 85.8547 22.5228 85.7054 22.5041C85.5654 22.4854 85.43 22.4761 85.2994 22.4761C84.9167 22.4761 84.5574 22.5834 84.2214 22.7981C83.8854 23.0034 83.6147 23.2974 83.4094 23.6801C83.2134 24.0534 83.1154 24.4921 83.1154 24.9961V29.0001H81.8834V21.4961H82.8914L83.0314 22.8681H83.0874C83.33 22.4574 83.6427 22.1028 84.0254 21.8041C84.408 21.5054 84.8607 21.3561 85.3834 21.3561Z" fill="#EFF3F6"/>
<path d="M90.0531 29.1401C89.1198 29.1401 88.3731 28.8181 87.8131 28.1741C87.2531 27.5208 86.9731 26.5501 86.9731 25.2621C86.9731 23.9741 87.2531 23.0034 87.8131 22.3501C88.3825 21.6874 89.1338 21.3561 90.0671 21.3561C90.6458 21.3561 91.1171 21.4634 91.4811 21.6781C91.8545 21.8928 92.1578 22.1541 92.3911 22.4621H92.4751C92.4658 22.3408 92.4471 22.1634 92.4191 21.9301C92.4005 21.6874 92.3911 21.4961 92.3911 21.3561V18.3601H93.6231V29.0001H92.6291L92.4471 27.9921H92.3911C92.1671 28.3094 91.8685 28.5801 91.4951 28.8041C91.1218 29.0281 90.6411 29.1401 90.0531 29.1401ZM90.2491 28.1181C91.0425 28.1181 91.5978 27.9034 91.9151 27.4741C92.2418 27.0354 92.4051 26.3774 92.4051 25.5001V25.2761C92.4051 24.3428 92.2511 23.6288 91.9431 23.1341C91.6351 22.6301 91.0658 22.3781 90.2351 22.3781C89.5725 22.3781 89.0731 22.6441 88.7371 23.1761C88.4105 23.6988 88.2471 24.4034 88.2471 25.2901C88.2471 26.1861 88.4105 26.8814 88.7371 27.3761C89.0731 27.8708 89.5771 28.1181 90.2491 28.1181Z" fill="#EFF3F6"/>
<path fill-rule="evenodd" clip-rule="evenodd" d="M15.3323 17.5516L44.3811 5.09769L32.3531 0.156479C31.845 -0.0521596 31.2754 -0.0521596 30.7674 0.156479L1.87816 12.0245L15.3323 17.5516ZM48.5069 29.0207H53.8109C56.1335 29.0207 57.8842 29.3674 59.0629 30.0607C60.2589 30.7367 60.8569 31.924 60.8569 33.6227C60.8569 34.7147 60.5535 35.6247 59.9469 36.3527C59.3402 37.0634 58.4649 37.5227 57.3209 37.7307V37.8607C58.1009 37.982 58.8029 38.2074 59.4269 38.5367C60.0682 38.8661 60.5709 39.334 60.9349 39.9407C61.2989 40.5474 61.4809 41.336 61.4809 42.3067C61.4809 43.988 60.9002 45.2881 59.7389 46.2067C58.5949 47.1254 57.0262 47.5847 55.0329 47.5847H48.5069V29.0207ZM50.8469 36.9247H54.2789C55.8735 36.9247 56.9655 36.6734 57.5549 36.1707C58.1442 35.6507 58.4389 34.8881 58.4389 33.8827C58.4389 32.8601 58.0749 32.132 57.3469 31.6987C56.6362 31.248 55.4922 31.0227 53.9149 31.0227H50.8469V36.9247ZM50.8469 38.8747V45.6087H54.5909C56.2375 45.6087 57.3815 45.2881 58.0229 44.6467C58.6642 44.0054 58.9849 43.1647 58.9849 42.1247C58.9849 41.154 58.6469 40.3741 57.9709 39.7847C57.3122 39.1781 56.1249 38.8747 54.4089 38.8747H50.8469ZM20.7301 19.7688L49.7877 7.31853L61.2427 12.0244L31.5605 24.2181L20.7301 19.7688ZM29.4742 27.8724L17.7191 23.0433V32.1866C17.7191 33.3388 16.785 34.273 15.6328 34.273C14.4806 34.273 13.5464 33.3388 13.5464 32.1866V21.3291L0.00561523 15.7664V52.4956C0.00561523 53.3416 0.516518 54.1039 1.29917 54.4255L29.4742 66.0001V27.8724ZM33.647 66.0001V27.8724L63.1157 15.7664V52.4956C63.1157 53.3416 62.6047 54.1041 61.8221 54.4255L33.647 66.0001Z" fill="#EFF3F6"/>
</svg>
