<svg width="97" height="66" viewBox="0 0 97 66" fill="none" xmlns="http://www.w3.org/2000/svg">
<path d="M79.326 40.006C79.326 42.3113 78.7367 44.0967 77.558 45.362C76.3967 46.6273 74.8193 47.26 72.826 47.26C71.5953 47.26 70.4947 46.9827 69.524 46.428C68.5707 45.856 67.8167 45.0327 67.262 43.958C66.7073 42.866 66.43 41.5487 66.43 40.006C66.43 37.7007 67.0107 35.924 68.172 34.676C69.3333 33.428 70.9107 32.804 72.904 32.804C74.1693 32.804 75.2787 33.09 76.232 33.662C77.2027 34.2167 77.9567 35.0313 78.494 36.106C79.0487 37.1633 79.326 38.4633 79.326 40.006ZM68.796 40.006C68.796 41.6527 69.1167 42.9613 69.758 43.932C70.4167 44.8853 71.4567 45.362 72.878 45.362C74.282 45.362 75.3133 44.8853 75.972 43.932C76.6307 42.9613 76.96 41.6527 76.96 40.006C76.96 38.3593 76.6307 37.068 75.972 36.132C75.3133 35.196 74.2733 34.728 72.852 34.728C71.4307 34.728 70.3993 35.196 69.758 36.132C69.1167 37.068 68.796 38.3593 68.796 40.006ZM85.7464 39.876L80.9364 33.064H83.5364L87.1244 38.316L90.6864 33.064H93.2604L88.4504 39.876L93.5204 47H90.9204L87.1244 41.436L83.2764 47H80.7024L85.7464 39.876Z" fill="#AEB1B4"/>
<path d="M71.642 19.97C70.5687 19.97 69.724 20.3293 69.108 21.048C68.492 21.7667 68.184 22.7513 68.184 24.002C68.184 25.2433 68.4687 26.228 69.038 26.956C69.6167 27.6747 70.48 28.034 71.628 28.034C72.0667 28.034 72.482 27.9967 72.874 27.922C73.266 27.8473 73.6487 27.754 74.022 27.642V28.734C73.6487 28.874 73.2613 28.9767 72.86 29.042C72.468 29.1073 71.9967 29.14 71.446 29.14C70.4287 29.14 69.5793 28.93 68.898 28.51C68.2167 28.09 67.7033 27.4927 67.358 26.718C67.022 25.9433 66.854 25.0333 66.854 23.988C66.854 22.98 67.036 22.0933 67.4 21.328C67.7733 20.5533 68.3193 19.9513 69.038 19.522C69.7567 19.0833 70.6293 18.864 71.656 18.864C72.7107 18.864 73.63 19.06 74.414 19.452L73.91 20.516C73.602 20.376 73.2567 20.25 72.874 20.138C72.5007 20.026 72.09 19.97 71.642 19.97ZM78.8777 21.37C79.7924 21.37 80.469 21.5707 80.9077 21.972C81.3464 22.3733 81.5657 23.0127 81.5657 23.89V29H80.6697L80.4317 27.936H80.3757C80.049 28.3467 79.7037 28.65 79.3397 28.846C78.985 29.042 78.4904 29.14 77.8557 29.14C77.1744 29.14 76.6097 28.9627 76.1617 28.608C75.7137 28.244 75.4897 27.6793 75.4897 26.914C75.4897 26.1673 75.7837 25.5933 76.3717 25.192C76.9597 24.7813 77.865 24.5573 79.0877 24.52L80.3617 24.478V24.03C80.3617 23.4047 80.2264 22.9707 79.9557 22.728C79.685 22.4853 79.3024 22.364 78.8077 22.364C78.4157 22.364 78.0424 22.4247 77.6877 22.546C77.333 22.658 77.0017 22.7887 76.6937 22.938L76.3157 22.014C76.6424 21.8367 77.0297 21.6873 77.4777 21.566C77.9257 21.4353 78.3924 21.37 78.8777 21.37ZM80.3477 25.332L79.2417 25.374C78.3084 25.4113 77.6597 25.5607 77.2957 25.822C76.941 26.0833 76.7637 26.452 76.7637 26.928C76.7637 27.348 76.8897 27.656 77.1417 27.852C77.403 28.048 77.7344 28.146 78.1357 28.146C78.7704 28.146 79.2977 27.9733 79.7177 27.628C80.1377 27.2733 80.3477 26.732 80.3477 26.004V25.332ZM87.3834 21.356C87.5234 21.356 87.6727 21.3653 87.8314 21.384C87.9994 21.3933 88.144 21.412 88.2654 21.44L88.1114 22.574C87.99 22.546 87.8547 22.5227 87.7054 22.504C87.5654 22.4853 87.43 22.476 87.2994 22.476C86.9167 22.476 86.5574 22.5833 86.2214 22.798C85.8854 23.0033 85.6147 23.2973 85.4094 23.68C85.2134 24.0533 85.1154 24.492 85.1154 24.996V29H83.8834V21.496H84.8914L85.0314 22.868H85.0874C85.33 22.4573 85.6427 22.1027 86.0254 21.804C86.408 21.5053 86.8607 21.356 87.3834 21.356ZM92.0531 29.14C91.1198 29.14 90.3731 28.818 89.8131 28.174C89.2531 27.5207 88.9731 26.55 88.9731 25.262C88.9731 23.974 89.2531 23.0033 89.8131 22.35C90.3825 21.6873 91.1338 21.356 92.0671 21.356C92.6458 21.356 93.1171 21.4633 93.4811 21.678C93.8545 21.8927 94.1578 22.154 94.3911 22.462H94.4751C94.4658 22.3407 94.4471 22.1633 94.4191 21.93C94.4005 21.6873 94.3911 21.496 94.3911 21.356V18.36H95.6231V29H94.6291L94.4471 27.992H94.3911C94.1671 28.3093 93.8685 28.58 93.4951 28.804C93.1218 29.028 92.6411 29.14 92.0531 29.14ZM92.2491 28.118C93.0425 28.118 93.5978 27.9033 93.9151 27.474C94.2418 27.0353 94.4051 26.3773 94.4051 25.5V25.276C94.4051 24.3427 94.2511 23.6287 93.9431 23.134C93.6351 22.63 93.0658 22.378 92.2351 22.378C91.5725 22.378 91.0731 22.644 90.7371 23.176C90.4105 23.6987 90.2471 24.4033 90.2471 25.29C90.2471 26.186 90.4105 26.8813 90.7371 27.376C91.0731 27.8707 91.5771 28.118 92.2491 28.118Z" fill="#AEB1B4"/>
<path fill-rule="evenodd" clip-rule="evenodd" d="M17.3323 17.5516L46.3811 5.09769L34.3531 0.156479C33.845 -0.0521596 33.2754 -0.0521596 32.7674 0.156479L3.87816 12.0245L17.3323 17.5516ZM50.5069 29.0207H55.8109C58.1335 29.0207 59.8842 29.3674 61.0629 30.0607C62.2589 30.7367 62.8569 31.924 62.8569 33.6227C62.8569 34.7147 62.5535 35.6247 61.9469 36.3527C61.3402 37.0634 60.4649 37.5227 59.3209 37.7307V37.8607C60.1009 37.982 60.8029 38.2074 61.4269 38.5367C62.0682 38.8661 62.5709 39.334 62.9349 39.9407C63.2989 40.5474 63.4809 41.336 63.4809 42.3067C63.4809 43.988 62.9002 45.2881 61.7389 46.2067C60.5949 47.1254 59.0262 47.5847 57.0329 47.5847H50.5069V29.0207ZM52.8469 36.9247H56.2789C57.8735 36.9247 58.9655 36.6734 59.5549 36.1707C60.1442 35.6507 60.4389 34.8881 60.4389 33.8827C60.4389 32.8601 60.0749 32.132 59.3469 31.6987C58.6362 31.248 57.4922 31.0227 55.9149 31.0227H52.8469V36.9247ZM52.8469 38.8747V45.6087H56.5909C58.2375 45.6087 59.3815 45.2881 60.0229 44.6467C60.6642 44.0054 60.9849 43.1647 60.9849 42.1247C60.9849 41.154 60.6469 40.3741 59.9709 39.7847C59.3122 39.1781 58.1249 38.8747 56.4089 38.8747H52.8469ZM22.7301 19.7688L51.7877 7.31853L63.2427 12.0244L33.5605 24.2181L22.7301 19.7688ZM31.4742 27.8724L19.7191 23.0433V32.1866C19.7191 33.3388 18.785 34.273 17.6328 34.273C16.4806 34.273 15.5464 33.3388 15.5464 32.1866V21.3291L2.00562 15.7664V52.4956C2.00562 53.3416 2.51652 54.1039 3.29917 54.4255L31.4742 66.0001V27.8724ZM35.647 66.0001V27.8724L65.1157 15.7664V52.4956C65.1157 53.3416 64.6047 54.1041 63.8221 54.4255L35.647 66.0001Z" fill="#AEB1B4"/>
</svg>
